<svg xmlns="http://www.w3.org/2000/svg" viewBox="0 0 503.67 274.561" class="h-full w-full fill-current text-neutral-500"><path d="M270.794 0c-.167 1.807-.479 3.613-.48 5.42-.026 57.494-.021 114.988-.021 172.483v5.122l1.313.262 90.763-158.711 31.098 18.639-89.781 159.078.735.933 155.848-92.244 18.434 32.667L322.71 236.04l.215.958h180.746v37.501h-5.473c-58.661 0-117.322-.025-175.982.062-3.44.005-5.824-1.024-8.253-3.51-20.03-20.497-40.216-40.843-60.363-61.226-.454-.459-1.009-.819-1.842-1.485-8.152 8.135-16.286 16.173-24.332 24.298-13.013 13.141-25.929 26.379-39.012 39.45-1.257 1.256-3.4 2.304-5.134 2.307-60.327.111-120.654.086-180.981.068-.648 0-1.296-.16-2.298-.292v-36.842h180.565l.421-1.234L24.919 143.65l18.417-32.684 155.706 92.177.975-.683-89.855-159.233 32.214-18.694 90.016 159.386 1.103-.234v-5.238c0-57.328-.003-114.655.013-171.983 0-2.155.188-4.31.289-6.465h37Z" class="daybreak-icon_svg__cls-1"></path></svg>